<svg width="99" height="99" viewBox="0 0 99 99" fill="none" xmlns="http://www.w3.org/2000/svg">
<path d="M78.577 20.4229C77.8427 17.6096 76.3907 15.048 74.3365 12.9938C68.1077 6.76502 57.2342 6.76502 51.0055 12.9938C45.5811 18.4181 44.7313 26.7176 48.4562 33.0413L33.136 48.3615C26.9278 44.6903 18.3231 45.6844 13.0885 50.9108C6.65346 57.3458 6.65346 67.815 13.0885 74.2459C15.1427 76.3001 17.7043 77.7563 20.5135 78.4864C21.2477 81.2955 22.6997 83.8572 24.754 85.9114C27.8683 89.034 32.0098 90.75 36.4195 90.75C40.825 90.75 44.9665 89.034 48.085 85.9155C53.5052 80.4911 54.3591 72.1958 50.6301 65.8721L65.9503 50.5519C72.1667 54.2273 80.7715 53.2331 86.002 47.9985C92.437 41.5635 92.437 31.0984 86.002 24.6675C83.9518 22.6091 81.3861 21.1571 78.577 20.4229ZM80.1733 42.1658C77.0548 45.2801 71.6222 45.2843 68.5037 42.1658L65.5873 39.2494L39.34 65.5009L42.2563 68.4173C45.4697 71.6307 45.4697 76.8694 42.2563 80.0828C39.1337 83.2054 33.7011 83.1971 30.5867 80.0828C28.7758 78.2719 28.3015 76.1434 28.2313 74.679L28.0375 70.9665L24.325 70.7726C22.8647 70.6984 20.7362 70.2282 18.9212 68.4173C15.7037 65.1998 15.7037 59.9651 18.9212 56.7476C20.4763 55.1925 22.5471 54.3345 24.7498 54.3345C26.9526 54.3345 29.0233 55.1925 30.5826 56.7476L33.499 59.664L59.7505 33.4166L56.8341 30.5003C53.6166 27.2828 53.6166 22.0481 56.8341 18.8306C59.9526 15.7204 65.3811 15.7204 68.4996 18.8306C69.9145 20.2455 70.7518 22.1678 70.8591 24.2426L71.0571 27.9428L74.7572 28.1408C76.8321 28.248 78.7543 29.0854 80.1692 30.5003C81.7243 32.0595 82.5823 34.1303 82.5823 36.333C82.5823 38.5358 81.7285 40.6065 80.1733 42.1658Z" fill="white"/>
</svg>
