<svg width="40" height="40" viewBox="0 0 40 40" fill="none" xmlns="http://www.w3.org/2000/svg">
<path d="M20.3717 19.4016L20 19.7683L19.6267 19.4016C18.1767 17.9766 15.8767 17.9766 14.4183 19.4016C12.9667 20.835 12.9667 23.0933 14.4183 24.5183L20 30L25.5817 24.5183C27.0333 23.0933 27.0333 20.835 25.5817 19.4016C24.1233 17.9766 21.8233 17.9766 20.3717 19.4016Z" fill="white"/>
<path d="M36.1783 18.8216L21.1783 3.82164C20.5267 3.16997 19.4733 3.16997 18.8217 3.82164L3.82166 18.8216C3.34499 19.2983 3.20166 20.015 3.45999 20.6383C3.71832 21.26 4.32666 21.6666 4.99999 21.6666H6.66666V25V33.3333C6.66666 35.1716 8.16166 36.6666 9.99999 36.6666H30C31.8383 36.6666 33.3333 35.1716 33.3333 33.3333V25V21.6666H35C35.6733 21.6666 36.2833 21.26 36.54 20.6383C36.7983 20.015 36.655 19.2983 36.1783 18.8216ZM30.0017 33.3333H9.99999V25V20V17.3583L20 7.3583L30 17.3583V25L30.0017 33.3333Z" fill="white"/>
</svg>
