<svg width="99" height="99" viewBox="0 0 99 99" fill="none" xmlns="http://www.w3.org/2000/svg">
<path d="M12.3748 53.625H16.4998V61.875V82.5C16.4998 87.0499 20.1999 90.75 24.7498 90.75H74.2498C78.7997 90.75 82.4998 87.0499 82.4998 82.5V61.875V53.625H86.6248C88.2913 53.625 89.8011 52.6185 90.4363 51.0799C91.0757 49.5371 90.7209 47.7634 89.5412 46.5836L52.4162 9.45862C50.8033 7.84574 48.1963 7.84574 46.5834 9.45862L9.45843 46.5836C8.27868 47.7634 7.92393 49.5371 8.5633 51.0799C9.20268 52.6185 10.7083 53.625 12.3748 53.625ZM49.4998 18.2077L74.2498 42.9577V61.875L74.2539 82.5H24.7498V61.875V49.5V42.9619L49.4998 18.2077Z" fill="white"/>
<path d="M49.5 70.125C58.5998 70.125 66 62.7248 66 53.625C66 44.5252 58.5998 37.125 49.5 37.125C40.4002 37.125 33 44.5252 33 53.625C33 62.7248 40.4002 70.125 49.5 70.125ZM49.5 45.375C54.0499 45.375 57.75 49.0751 57.75 53.625C57.75 58.1749 54.0499 61.875 49.5 61.875C44.9501 61.875 41.25 58.1749 41.25 53.625C41.25 49.0751 44.9501 45.375 49.5 45.375Z" fill="white"/>
</svg>
