<svg width="40" height="40" viewBox="0 0 40 40" fill="none" xmlns="http://www.w3.org/2000/svg">
<path d="M19.9998 3.33337C15.4048 3.33337 11.6665 7.07171 11.6665 11.6667V15H9.99984C8.1615 15 6.6665 16.495 6.6665 18.3334V33.3334C6.6665 35.1717 8.1615 36.6667 9.99984 36.6667H29.9998C31.8382 36.6667 33.3332 35.1717 33.3332 33.3334V18.3334C33.3332 16.495 31.8382 15 29.9998 15H28.3332V11.6667C28.3332 7.07171 24.5948 3.33337 19.9998 3.33337ZM14.9998 11.6667C14.9998 8.91004 17.2432 6.66671 19.9998 6.66671C22.7565 6.66671 24.9998 8.91004 24.9998 11.6667V15H14.9998V11.6667ZM30.0032 33.3334H21.6665V29.5367C22.6582 28.9584 23.3332 27.895 23.3332 26.6667C23.3332 24.8284 21.8382 23.3334 19.9998 23.3334C18.1615 23.3334 16.6665 24.8284 16.6665 26.6667C16.6665 27.8934 17.3415 28.9584 18.3332 29.5367V33.3334H9.99984V18.3334H29.9998L30.0032 33.3334Z" fill="white"/>
</svg>
