<svg width="24" height="24" viewBox="0 0 24 24" fill="none" xmlns="http://www.w3.org/2000/svg">
<path d="M20.5631 3.34007C20.2711 3.14107 19.8961 3.11107 19.5741 3.26107L2.57408 11.2611C2.21908 11.4291 1.99508 11.7881 2.00008 12.1801C2.00608 12.5721 2.24008 12.9251 2.60008 13.0821L8.00008 15.4451V22.1671L13.8361 17.9991L18.6001 20.0831C18.7281 20.1401 18.8651 20.1671 19.0001 20.1671C19.1811 20.1671 19.3601 20.1181 19.5201 20.0211C19.7981 19.8521 19.9771 19.5581 19.9991 19.2331L20.9991 4.23307C21.0211 3.87907 20.8561 3.54007 20.5631 3.34007ZM18.0971 17.6801L12.8281 15.3741L16.0001 9.16707L8.35108 13.4171L5.41908 12.1341L18.8901 5.79407L18.0971 17.6801Z" fill="white"/>
</svg>
