<svg width="40" height="40" viewBox="0 0 40 40" fill="none" xmlns="http://www.w3.org/2000/svg">
<path d="M34.6452 15.0383C34.4368 15.0833 31.6402 15.735 28.0568 17.995C27.5185 15.3833 25.9252 10.4933 21.2102 5.51995L20.0002 4.24329L18.7902 5.52162C14.0585 10.5133 12.4718 15.4166 11.9385 18.045C8.34183 15.7466 5.56683 15.0866 5.3635 15.04L3.3335 14.5866V16.6666C3.3335 28.8166 9.87516 36.6666 20.0002 36.6666C29.9685 36.6666 36.6668 28.63 36.6668 16.6666V14.5966L34.6452 15.0383ZM14.9985 20.0633C15.0018 20.0083 15.2518 14.8966 20.0002 9.17662C24.6902 14.8433 24.9985 20 25.0002 20V20.2083C23.3368 21.585 21.6185 23.31 19.9835 25.465C18.3435 23.3466 16.6385 21.6433 14.9985 20.2766V20.0633ZM20.0002 33.3333C11.1402 33.3333 7.4185 26.34 6.77183 19.06C9.53016 20.2566 14.4652 23.1033 18.6168 29.265L20.0185 31.3466L21.3935 29.2466C25.4368 23.0666 30.4352 20.2283 33.2202 19.0433C32.5568 26.09 28.8402 33.3333 20.0002 33.3333Z" fill="white"/>
</svg>
